<svg xmlns="http://www.w3.org/2000/svg" style="display: none;"><symbol id="cocoa" viewBox="0 0 3000 3000"><title>cocoa</title><path clip-rule="evenodd" d="m1706.742 200.537c-163.106 7.968-291.709 18.818-407.753 55.388-764.882 254.261-1347.165 1400.29-1042.238 2037.186 28.557 120.073-2.299 300.156 75.438 369.572 90.856 79.015 290.102-64.333 383.455-81.638 258.61-13.24 461.243-117.086 659.569-277.385 224.27 269.91 541.412 501.421 858.951 521.461 27.044.437 50.209 2.526 81.442 14.271 105.606 36.618 244.632 123.949 328.51 87.216 96.337-41.901 77.76-234.579 88.378-312.235 2.287-30.446 7.424-70.905 18.072-92.645 248.052-548.052-145.762-1418.215-682.77-1819.764-28.156-126.216-75.275-240.347-128.514-358.119 85.262-210.744 97.848-155.346-19.266-232.315-122.242-73.907-69.241-71.233-213.274 89.007zm349.664 977.373c-30.006 147.885-82.969 302.789-158.883 456.574l171.645 278.52c8.479 13.764 4.195 31.828-9.574 40.313-13.764 8.484-31.828 4.195-40.313-9.574l-153.058-248.361c-68.051 127.86-155.466 257.325-246.229 365.033 166.096 243.135 381.686 479.139 649.084 707.748 106.969 12.896 215.704 98.327 325.342 108.826-249.66-411.05-257.284-389.859-220.966-418.968 38.807-16.688 48.422 34.994 73.269 67.621 65.005 105.487 197.511 320.5 197.578 320.608 39.815-101.943 12.525-238.254 49.025-339.539-135.896-552.58-350.01-992.777-636.92-1328.801zm-476.039 928.301c-51.767 58.014-105.498 111.322-160.453 159.557 203.046 244.213 474.948 447.096 749.361 493.225-238.787-211.477-434.449-429.2-588.908-652.782zm176.608-1782.697c-712.682 316.218-1206.955 944.924-1450.301 1934.232 36.576 101.565 9.163 237.211 49.025 339.539 254.966-407.79 232.606-405.066 274.935-385.704 32.355 27.156-9.496 58.985-27.471 95.843-65.01 105.484-197.516 320.497-197.583 320.605 108.969-10.26 218.454-95.903 325.342-108.832 774.311-661.945 1113.809-1386.135 1075.934-2164.945l-826.137 1340.531c-8.484 13.764-26.549 18.053-40.313 9.568-13.77-8.479-18.053-26.543-9.574-40.313zm107.496 10.365c43.594 781.072-281.074 1509.627-1033.746 2176.148 672.366-124.415 1254.344-1056.634 1192.291-1706.366-3.942-144.18-133.962-447.576-158.545-469.782zm215.713 452.344c10.589 105.151 5.879 208.962-10.576 317.637 293.842 330.721 516.164 764.379 660.422 1309.705 156.374-513.783-186.615-1250.017-649.846-1627.342zm22.845 1293.41 91.266 148.096c8.484 13.77 26.549 18.053 40.313 9.574 13.764-8.484 18.053-26.549 9.574-40.313l-91.271-148.096c-8.484-13.764-26.543-18.053-40.313-9.568-13.764 8.479-18.053 26.543-9.569 40.307zm-387.369-1820.209c-163.125 5.302-293.963 18.584-409.523 55.399-685.488 233.886-1226.438 1242.949-1036.166 1849.777 257.092-972.03 761.953-1589.537 1479.304-1901.713-10.056-1.675-21.899-2.815-33.615-3.463zm-868.57 1540.506-91.272 148.096c-8.479 13.769-4.189 31.828 9.574 40.312s31.828 4.195 40.313-9.568l91.266-148.096c8.484-13.764 4.195-31.828-9.568-40.313-13.77-8.484-31.829-4.195-40.313 9.569zm929.426-1591.178c49.141 10.506 92.182 36.737 124.067 76.459l39.451-92.52-98.608-60.768z" fill-rule="evenodd"/></symbol><symbol id="check" viewBox="0 0 512 512"><title>check</title><path d="m256 0c-141.164062 0-256 114.835938-256 256s114.835938 256 256 256 256-114.835938 256-256-114.835938-256-256-256zm129.75 201.75-138.667969 138.664062c-4.160156 4.160157-9.621093 6.253907-15.082031 6.253907s-10.921875-2.09375-15.082031-6.253907l-69.332031-69.332031c-8.34375-8.339843-8.34375-21.824219 0-30.164062 8.339843-8.34375 21.820312-8.34375 30.164062 0l54.25 54.25 123.585938-123.582031c8.339843-8.34375 21.820312-8.34375 30.164062 0 8.339844 8.339843 8.339844 21.820312 0 30.164062zm0 0"/></symbol><symbol id="delivery" viewBox="0 0 512 512"><title>delivery</title><g> <g> <path d="M386.689,304.403c-35.587,0-64.538,28.951-64.538,64.538s28.951,64.538,64.538,64.538 c35.593,0,64.538-28.951,64.538-64.538S422.276,304.403,386.689,304.403z M386.689,401.21c-17.796,0-32.269-14.473-32.269-32.269 c0-17.796,14.473-32.269,32.269-32.269c17.796,0,32.269,14.473,32.269,32.269C418.958,386.738,404.485,401.21,386.689,401.21z"/> </g> </g><g> <g> <path d="M166.185,304.403c-35.587,0-64.538,28.951-64.538,64.538s28.951,64.538,64.538,64.538s64.538-28.951,64.538-64.538 S201.772,304.403,166.185,304.403z M166.185,401.21c-17.796,0-32.269-14.473-32.269-32.269c0-17.796,14.473-32.269,32.269-32.269 c17.791,0,32.269,14.473,32.269,32.269C198.454,386.738,183.981,401.21,166.185,401.21z"/> </g> </g><g> <g> <path d="M430.15,119.675c-2.743-5.448-8.32-8.885-14.419-8.885h-84.975v32.269h75.025l43.934,87.384l28.838-14.5L430.15,119.675z"/> </g> </g><g> <g> <rect x="216.202" y="353.345" width="122.084" height="32.269"/> </g> </g><g> <g> <path d="M117.781,353.345H61.849c-8.912,0-16.134,7.223-16.134,16.134c0,8.912,7.223,16.134,16.134,16.134h55.933 c8.912,0,16.134-7.223,16.134-16.134C133.916,360.567,126.693,353.345,117.781,353.345z"/> </g> </g><g> <g> <path d="M508.612,254.709l-31.736-40.874c-3.049-3.937-7.755-6.239-12.741-6.239H346.891V94.655 c0-8.912-7.223-16.134-16.134-16.134H61.849c-8.912,0-16.134,7.223-16.134,16.134s7.223,16.134,16.134,16.134h252.773v112.941 c0,8.912,7.223,16.134,16.134,16.134h125.478l23.497,30.268v83.211h-44.639c-8.912,0-16.134,7.223-16.134,16.134 c0,8.912,7.223,16.134,16.134,16.134h60.773c8.912,0,16.134-7.223,16.135-16.134V264.605 C512,261.023,510.806,257.538,508.612,254.709z"/> </g> </g><g> <g> <path d="M116.706,271.597H42.487c-8.912,0-16.134,7.223-16.134,16.134c0,8.912,7.223,16.134,16.134,16.134h74.218 c8.912,0,16.134-7.223,16.134-16.134C132.84,278.82,125.617,271.597,116.706,271.597z"/> </g> </g><g> <g> <path d="M153.815,208.134H16.134C7.223,208.134,0,215.357,0,224.269s7.223,16.134,16.134,16.134h137.681 c8.912,0,16.134-7.223,16.134-16.134S162.727,208.134,153.815,208.134z"/> </g> </g><g> <g> <path d="M180.168,144.672H42.487c-8.912,0-16.134,7.223-16.134,16.134c0,8.912,7.223,16.134,16.134,16.134h137.681 c8.912,0,16.134-7.223,16.134-16.134C196.303,151.895,189.08,144.672,180.168,144.672z"/> </g> </g></symbol><symbol id="growth" viewBox="0 -9 418.93516 418"><title>growth</title><path d="m208.070312 400.226562c-14.59375 0-29.179687-2.941406-42.6875-8.816406l-64.589843-28.078125c-23.367188-10.164062-48.074219-16.601562-73.433594-19.136719l-21.210937-2.121093c-3.492188-.347657-6.148438-3.285157-6.148438-6.792969v-66.535156c0-1.476563.480469-2.914063 1.367188-4.09375 1.585937-2.121094 39.601562-51.785156 97.671874-38.863282 32.660157 7.257813 58.957032 20.839844 75.265626 30.957032 11.839843 7.34375 25.71875 11.222656 40.136718 11.222656h64.589844c11.132812 0 20.917969 5.890625 26.390625 14.726562l55.628906-64.089843c10.785157-14.402344 28.429688-23.222657 46.902344-23.222657h4.15625c2.308594 0 4.457031 1.164063 5.714844 3.09375 1.261719 1.929688 1.460937 4.371094.535156 6.480469l-50.3125 114.34375c-11 25.007813-33.398437 43.898438-59.910156 50.527344l-8.851563 2.210937-51.492187 20.597657c-12.671875 5.066406-26.199219 7.589843-39.722657 7.589843zm-194.414062-71.125 15.0625 1.507813c26.769531 2.675781 52.851562 9.476563 77.523438 20.203125l64.585937 28.078125c22.710937 9.875 48.902344 10.261719 71.898437 1.0625l51.914063-20.765625c.289063-.113281.582031-.207031.882813-.28125l9.300781-2.328125c22.449219-5.613281 41.414062-21.605469 50.722656-42.777344l45.890625-104.292969c-11.75 1.730469-22.5625 8.0625-29.765625 17.664063l-61.625 71.023437c.007813.265626.011719.527344.011719.796876 0 17.105468-13.917969 31.023437-31.023438 31.023437h-90.117187c-11.714844 0-23.292969 1.878906-34.40625 5.582031l-2.507813-6.367187-2.121094-6.488281.347657-.113282c12.472656-4.15625 25.5-6.269531 38.6875-6.269531h90.117187c9.574219 0 17.371094-7.792969 17.371094-17.371094s-7.792969-17.371093-17.371094-17.371093h-64.589844c-16.964843 0-33.332031-4.589844-47.332031-13.273438-15.40625-9.558594-40.242187-22.382812-71.027343-29.230469-43.976563-9.753906-75.621094 23.996094-82.425782 32.046875v57.941406zm0 0"/><path d="m268.867188 193.839844c-10.5 0-22.273438-3.242188-35.234376-9.722656-1.570312-.789063-2.78125-2.15625-3.375-3.808594-.527343-1.480469-12.726562-36.570313 6.660157-62.519532 14.089843-18.863281 40.582031-27.359374 78.785156-25.230468 3.484375.191406 6.261719 2.984375 6.433594 6.476562.136719 2.710938 2.953125 66.699219-29.675781 88.003906-6.9375 4.535157-14.820313 6.800782-23.59375 6.800782zm-26.527344-20.679688c17.933594 8.410156 32.269531 9.234375 42.660156 2.449219 19.347656-12.636719 23.53125-50.148437 23.632812-69.671875-29.933593-.730469-50.3125 6.015625-60.777343 20.019531-12.453125 16.675781-7.613281 39.613281-5.515625 47.203125zm0 0"/><path d="m164.460938 104.390625c-12.105469 0-26.070313-2.59375-38.257813-11.519531-20.671875-15.148438-30.171875-43.988282-28.242187-85.714844.164062-3.488281 2.929687-6.292969 6.417968-6.5 2.953125-.167969 72.851563-3.898438 96.371094 31.40625 10.953125 16.433594 10.054688 37.957031-2.660156 63.984375-.773438 1.582031-2.125 2.804687-3.777344 3.410156-.917969.339844-13.734375 4.933594-29.851562 4.933594zm27.496093-11.339844h.066407zm-80.558593-78.960937c-.589844 33.421875 7.09375 56.203125 22.871093 67.765625 18.890625 13.839843 44.683594 7.957031 52.792969 5.59375 9.277344-20.132813 10.0625-36.207031 2.328125-47.816407-14.375-21.578124-56.53125-25.796874-77.992187-25.542968zm0 0"/><path d="m217.777344 279.21875c-.214844 0-.429688-.011719-.648438-.03125-3.636718-.34375-6.359375-3.488281-6.175781-7.140625.402344-8.03125 1.089844-15.648437 2.023437-22.867187 2.839844-48.3125 1.375-160.820313-69.757812-191.945313-3.453125-1.511719-5.03125-5.535156-3.519531-8.992187 1.507812-3.449219 5.542969-5.023438 8.992187-3.515626 41.917969 18.339844 68.289063 64 76.246094 132.042969.714844 6.097657 1.25 12.109375 1.648438 17.964844 18.734374-47.339844 47.394531-64.066406 49.101562-65.023437 3.28125-1.855469 7.445312-.675782 9.296875 2.601562 1.839844 3.28125.683594 7.433594-2.585937 9.285156-.722657.421875-44.671876 26.796875-55.703126 108.132813-.839843 13.914062-2.050781 22.785156-2.164062 23.597656-.472656 3.40625-3.382812 5.890625-6.753906 5.890625zm0 0"/></symbol><symbol id="fair-trade" viewBox="0 0 511.214 511.214"><title>fair-trade</title><path d="m472.63 73.689c-49.336-51.42-138.101-51.452-187.476-.078l-22.946 22.293-25.66-25.66c-54.088-54.089-142.098-54.089-196.186 0-53.815 51.634-53.816 144.552 0 196.186l2.599 2.599-5.078 5.079c-19.357 18.572-19.356 51.99 0 70.562l.442.442c9.298 9.298 21.621 14.464 34.749 14.601.137 13.128 5.304 25.45 14.601 34.748l.442.442c9.479 9.476 22.124 14.692 35.531 14.608.327 12.84 5.467 24.864 14.583 33.98l.442.442c18.573 19.357 51.99 19.356 70.562 0l6.676-6.675 29.868 29.869c19.214 19.213 50.478 19.212 69.693-.001 9.417-9.417 14.206-21.727 14.393-34.095 25.539.13 48.072-21.925 48.464-47.482 36.444-.393 58.469-41.317 38.961-71.964l55.041-52.051c51.73-49.292 51.859-138.384.299-187.845zm-384.957 250.21c-7.405 7.718-20.731 7.718-28.136 0l-.442-.442c-7.718-7.406-7.718-20.73 0-28.136l27.544-27.545c7.76-7.759 20.382-7.754 28.142.006l.437.437c7.756 7.756 7.757 20.376.004 28.133zm49.792 49.792c-7.405 7.719-20.731 7.718-28.136 0l-.442-.442c-7.718-7.406-7.717-20.731 0-28.137l45.023-45.022c7.41-7.72 20.73-7.719 28.142.006l.437.437c7.718 7.406 7.717 20.731 0 28.137zm68.412 31.175-17.857 17.855c-7.41 7.72-20.73 7.719-28.142-.006l-.439-.439c-7.716-7.405-7.714-20.73.002-28.134l17.857-17.855c7.41-7.72 20.73-7.719 28.142.006l.437.437c7.719 7.404 7.718 20.73 0 28.136zm183.685-54.256c-6.6 6.599-17.337 6.601-23.937 0l-29.759-29.759c-5.857-5.857-15.355-5.857-21.213 0s-5.858 15.355 0 21.213l28.093 28.093c17.34 18.843-8.445 44.602-27.268 27.269l-27.945-27.945c-5.857-5.857-15.355-5.857-21.213 0s-5.858 15.355 0 21.213l27.8 27.8c.048.05.089.104.138.153 7.518 7.518 7.518 19.751 0 27.268-7.518 7.52-19.75 7.517-27.268.001l-31.312-31.312c10.503-18.755 6.942-44.051-8.594-59.091l-.437-.437c-5.1-5.1-11.114-8.947-17.667-11.416 14.156-19.013 11.878-47.822-5.285-64.345l-.437-.437c-13.809-14.18-36.169-18.53-54.312-10.869-2.285-7.695-6.458-14.943-12.522-21.008l-.437-.437c-19.454-19.453-51.107-19.452-70.563 0l-1.253 1.253-2.598-2.598c-42.392-42.392-42.392-111.368 0-153.76 42.393-42.391 111.369-42.391 153.76 0l25.355 25.354-48.084 46.716c-21.47 19.91-21.769 56.506-.631 76.765 20.993 20.992 55.151 20.992 76.143 0l16.585-16.585c.521-.521 1.371-.521 1.893 0l102.966 102.966c6.567 6.299 6.567 17.634.002 23.935zm61.999-110.724-54.665 51.695-89.087-89.087c-11.664-12.157-32.654-12.157-44.318 0l-16.585 16.585c-9.296 9.295-24.421 9.295-33.717-.002-9.367-8.988-9.23-25.175.301-34.012l92.646-90.012c100.092-92.501 237.484 44.455 145.425 144.833z"/></symbol><symbol id="quality" viewBox="0 0 511.922 511.922"><title>quality</title><path id="XMLID_162_" d="m456.775 448.899-64.76-112.168c10.741-9.045 18.164-21.909 20.147-36.486 1.347-9.912 6.445-18.743 14.355-24.866 20.505-15.872 27.967-43.719 18.146-67.719-3.789-9.258-3.789-19.455 0-28.712 9.821-24 2.359-51.846-18.146-67.719-7.91-6.123-13.009-14.954-14.355-24.866-3.495-25.694-23.881-46.08-49.575-49.573-9.911-1.348-18.742-6.446-24.864-14.356-15.874-20.506-43.718-27.967-67.72-18.146-9.258 3.789-19.455 3.789-28.712 0-23.998-9.822-51.846-2.36-67.719 18.146-6.123 7.91-14.954 13.008-24.866 14.356-25.695 3.494-46.08 23.879-49.573 49.574-1.348 9.912-6.446 18.743-14.356 24.866-20.506 15.873-27.967 43.72-18.146 67.719 3.789 9.257 3.789 19.455 0 28.712-9.822 23.999-2.36 51.846 18.146 67.719 7.91 6.123 13.008 14.954 14.356 24.865 2.008 14.769 9.604 27.776 20.573 36.837l-64.558 111.817c-2.022 3.503-1.736 7.879.727 11.087 2.462 3.208 6.613 4.619 10.522 3.572l56.271-15.078 15.013 56.029c1.047 3.907 4.344 6.798 8.354 7.326.438.058.875.086 1.308.086 3.538 0 6.856-1.88 8.657-5l69.662-120.657c5.282-.569 10.542-1.862 15.628-3.944 9.258-3.789 19.456-3.789 28.712 0 5.303 2.171 10.795 3.494 16.304 4.022l69.616 120.579c1.802 3.121 5.119 5 8.657 5 .434 0 .87-.028 1.309-.086 4.01-.528 7.307-3.419 8.354-7.326l15.014-56.029 56.271 15.078c3.904 1.047 8.059-.362 10.521-3.572 2.462-3.208 2.749-7.584.727-11.087zm-306.025 27.115-11.353-42.369c-.687-2.562-2.362-4.746-4.659-6.072s-5.025-1.685-7.588-.999l-42.611 11.417 52.543-91.007c3.715 1.329 7.604 2.288 11.623 2.835 9.912 1.348 18.743 6.446 24.866 14.356 7.771 10.039 18.414 16.944 30.069 20.232zm82.964-112.203c-15.709 6.43-33.937 1.545-44.328-11.877-9.354-12.084-22.845-19.874-37.987-21.932-16.819-2.287-30.164-15.631-32.45-32.451-2.059-15.142-9.848-28.632-21.932-37.987-13.423-10.39-18.307-28.619-11.878-44.328 5.789-14.143 5.789-29.72 0-43.863-6.429-15.709-1.545-33.938 11.878-44.328 12.084-9.354 19.873-22.844 21.932-37.987 2.287-16.819 15.631-30.164 32.45-32.451 15.142-2.058 28.633-9.847 37.987-21.931 7.328-9.467 18.551-14.686 30.043-14.686 4.803 0 9.654.913 14.284 2.808 14.144 5.788 29.722 5.788 43.864 0 15.708-6.43 33.938-1.545 44.328 11.878 9.354 12.084 22.844 19.873 37.985 21.931 16.819 2.287 30.164 15.631 32.451 32.451 2.059 15.143 9.848 28.633 21.932 37.987 13.423 10.39 18.307 28.618 11.878 44.328-5.788 14.143-5.788 29.72 0 43.863 6.429 15.709 1.544 33.938-11.878 44.328-12.084 9.354-19.873 22.844-21.932 37.986-2.287 16.82-15.632 30.165-32.45 32.451-15.143 2.058-28.633 9.847-37.987 21.932-10.391 13.424-28.619 18.307-44.327 11.877-14.143-5.787-29.719-5.787-43.863.001zm151.058 62.763c-5.337-1.431-10.817 1.737-12.247 7.071l-11.354 42.369-52.98-91.765c11.443-3.348 21.879-10.19 29.531-20.074 6.122-7.911 14.953-13.009 24.864-14.356 4.207-.572 8.269-1.605 12.14-3.032l52.656 91.204z"/><path id="XMLID_1190_" d="m210.202 156.314-31.113 31.112c-1.875 1.875-2.929 4.419-2.929 7.071s1.054 5.196 2.929 7.071l58.353 58.354c1.875 1.875 4.419 2.929 7.071 2.929s5.196-1.054 7.071-2.929l81.25-81.25c3.905-3.905 3.905-10.237 0-14.142l-31.112-31.113c-1.876-1.875-4.419-2.929-7.071-2.929s-5.196 1.054-7.071 2.929l-43.066 43.067-20.168-20.169c-1.875-1.875-4.419-2.929-7.071-2.929-2.654-.001-5.198 1.053-7.073 2.928zm27.239 41.383c1.875 1.875 4.419 2.929 7.071 2.929s5.196-1.054 7.071-2.929l43.066-43.067 16.971 16.971-67.108 67.108-44.21-44.211 16.971-16.97z"/><path id="XMLID_1191_" d="m385.961 196.67c0-26.564-7.961-52.112-23.021-73.882-14.707-21.257-35.136-37.512-59.078-47.006-5.136-2.035-10.946.476-12.982 5.61s.476 10.946 5.609 12.982c42.203 16.735 69.473 56.889 69.473 102.296 0 60.654-49.346 110-110 110s-110-49.346-110-110c0-45.408 27.27-85.562 69.473-102.297 5.134-2.036 7.646-7.848 5.61-12.982s-7.849-7.646-12.982-5.61c-23.943 9.495-44.372 25.749-59.079 47.006-15.061 21.77-23.022 47.318-23.022 73.882 0 71.682 58.318 130 130 130 71.682.001 129.999-58.317 129.999-129.999z"/><path id="XMLID_1218_" d="m255.961 86.666c2.63 0 5.21-1.06 7.069-2.93 1.86-1.86 2.931-4.43 2.931-7.07 0-2.63-1.07-5.21-2.931-7.07-1.859-1.86-4.439-2.93-7.069-2.93s-5.21 1.07-7.07 2.93-2.93 4.44-2.93 7.07c0 2.64 1.07 5.21 2.93 7.07 1.86 1.87 4.44 2.93 7.07 2.93z"/></symbol><symbol id="user" viewBox="0 0 512 512"><title>user</title><path d="m437.019531 74.980469c-48.351562-48.351563-112.640625-74.980469-181.019531-74.980469s-132.667969 26.628906-181.019531 74.980469c-48.351563 48.351562-74.980469 112.640625-74.980469 181.019531s26.628906 132.667969 74.980469 181.019531c48.351562 48.351563 112.640625 74.980469 181.019531 74.980469s132.667969-26.628906 181.019531-74.980469c48.351563-48.351562 74.980469-112.640625 74.980469-181.019531s-26.628906-132.667969-74.980469-181.019531zm-325.914062 354.316406c8.453125-72.734375 70.988281-128.890625 144.894531-128.890625 38.960938 0 75.597656 15.179688 103.15625 42.734375 23.28125 23.285156 37.964844 53.6875 41.742188 86.152344-39.257813 32.878906-89.804688 52.707031-144.898438 52.707031s-105.636719-19.824219-144.894531-52.703125zm144.894531-159.789063c-42.871094 0-77.753906-34.882812-77.753906-77.753906 0-42.875 34.882812-77.753906 77.753906-77.753906s77.753906 34.878906 77.753906 77.753906c0 42.871094-34.882812 77.753906-77.753906 77.753906zm170.71875 134.425782c-7.644531-30.820313-23.585938-59.238282-46.351562-82.003906-18.4375-18.4375-40.25-32.269532-64.039063-40.9375 28.597656-19.394532 47.425781-52.160157 47.425781-89.238282 0-59.414062-48.339844-107.753906-107.753906-107.753906s-107.753906 48.339844-107.753906 107.753906c0 37.097656 18.84375 69.875 47.464844 89.265625-21.886719 7.976563-42.140626 20.308594-59.566407 36.542969-25.234375 23.5-42.757812 53.464844-50.882812 86.347656-34.410157-39.667968-55.261719-91.398437-55.261719-147.910156 0-124.617188 101.382812-226 226-226s226 101.382812 226 226c0 56.523438-20.859375 108.265625-55.28125 147.933594zm0 0"/></symbol><symbol id="search" viewBox="0 0 56.966 56.966"><title>search</title><path d="M55.146,51.887L41.588,37.786c3.486-4.144,5.396-9.358,5.396-14.786c0-12.682-10.318-23-23-23s-23,10.318-23,23 s10.318,23,23,23c4.761,0,9.298-1.436,13.177-4.162l13.661,14.208c0.571,0.593,1.339,0.92,2.162,0.92 c0.779,0,1.518-0.297,2.079-0.837C56.255,54.982,56.293,53.08,55.146,51.887z M23.984,6c9.374,0,17,7.626,17,17s-7.626,17-17,17 s-17-7.626-17-17S14.61,6,23.984,6z"/></symbol><symbol id="shopping-cart" viewBox="0 0 512.008 512.008"><title>shopping-cart</title><path d="m181 436.004c0 24.813 20.187 45 45 45s45-20.187 45-45-20.187-45-45-45-45 20.187-45 45zm45-15c8.271 0 15 6.729 15 15s-6.729 15-15 15-15-6.729-15-15 6.729-15 15-15z"/><path d="m332 436.004c0 24.813 20.187 45 45 45s45-20.187 45-45-20.187-45-45-45-45 20.187-45 45zm45-15c8.271 0 15 6.729 15 15s-6.729 15-15 15-15-6.729-15-15 6.729-15 15-15z"/><path d="m497 91.004h-379.683c-5.136-17.979-9.922-34.731-14.033-49.12-1.839-6.44-7.726-10.88-14.423-10.88h-73.861c-8.284 0-15 6.716-15 15s6.716 15 15 15h62.546c16.774 58.716 55.988 195.969 72.428 253.51l-5.683 11.365c-14.975 29.953 6.834 65.125 40.25 65.125h252.459c8.284 0 15-6.716 15-15s-6.716-15-15-15h-252.459c-11.156 0-18.401-11.738-13.417-21.708l4.146-8.292h261.73c6.697 0 12.583-4.439 14.423-10.879l60-210c2.733-9.565-4.453-19.121-14.423-19.121zm-71.314 210h-248.371c-8.173-28.607-31.047-108.665-51.427-180h351.227z"/></symbol><symbol id="left-arrow" viewBox="0 0 492 492"><title>left-arrow</title><path d="M198.608,246.104L382.664,62.04c5.068-5.056,7.856-11.816,7.856-19.024c0-7.212-2.788-13.968-7.856-19.032l-16.128-16.12 C361.476,2.792,354.712,0,347.504,0s-13.964,2.792-19.028,7.864L109.328,227.008c-5.084,5.08-7.868,11.868-7.848,19.084 c-0.02,7.248,2.76,14.028,7.848,19.112l218.944,218.932c5.064,5.072,11.82,7.864,19.032,7.864c7.208,0,13.964-2.792,19.032-7.864 l16.124-16.12c10.492-10.492,10.492-27.572,0-38.06L198.608,246.104z"/></symbol><symbol id="right-arrow" viewBox="0 0 492.004 492.004"><title>right-arrow</title><path d="M382.678,226.804L163.73,7.86C158.666,2.792,151.906,0,144.698,0s-13.968,2.792-19.032,7.86l-16.124,16.12 c-10.492,10.504-10.492,27.576,0,38.064L293.398,245.9l-184.06,184.06c-5.064,5.068-7.86,11.824-7.86,19.028 c0,7.212,2.796,13.968,7.86,19.04l16.124,16.116c5.068,5.068,11.824,7.86,19.032,7.86s13.968-2.792,19.032-7.86L382.678,265 c5.076-5.084,7.864-11.872,7.848-19.088C390.542,238.668,387.754,231.884,382.678,226.804z"/></symbol><symbol id="check-1" viewBox="0 0 511.985 511.985"><title>check-1</title><path d="M500.088,83.681c-15.841-15.862-41.564-15.852-57.426,0L184.205,342.148L69.332,227.276 c-15.862-15.862-41.574-15.862-57.436,0c-15.862,15.862-15.862,41.574,0,57.436l143.585,143.585 c7.926,7.926,18.319,11.899,28.713,11.899c10.394,0,20.797-3.963,28.723-11.899l287.171-287.181 C515.95,125.265,515.95,99.542,500.088,83.681z"/></symbol></svg>