<svg xmlns="http://www.w3.org/2000/svg" style="display: none;"><symbol id="hamburger" viewBox="0 0 16 16"><title>hamburger</title><path d="m15.5 4h-15a.5.5 0 0 1 0-1h15a.5.5 0 0 1 0 1z"/><path d="m15.5 9h-15a.5.5 0 0 1 0-1h15a.5.5 0 0 1 0 1z"/><path d="m15.5 14h-15a.5.5 0 0 1 0-1h15a.5.5 0 0 1 0 1z"/></symbol><symbol id="close" viewBox="0 0 512 512"><title>close</title><path d="m25 512a25 25 0 0 1 -17.68-42.68l462-462a25 25 0 0 1 35.36 35.36l-462 462a24.93 24.93 0 0 1 -17.68 7.32z"/><path d="m487 512a24.93 24.93 0 0 1 -17.68-7.32l-462-462a25 25 0 0 1 35.36-35.36l462 462a25 25 0 0 1 -17.68 42.68z"/></symbol></svg>